PathFileType	4	(X/Y/Z)	22_1_40_p0_0-218_filt_butterworth.trc
DataRate	CameraRate	NumFrames	NumMarkers	Units	OrigDataRate	OrigDataStartFrame	OrigNumFrames
58.0	58.0	5	27	m	58.0	27	218
Frame#	Time	RHip			RKnee			RAnkle			RBigToe			RSmallToe			RHeel			LHip			LKnee			LAnkle			LBigToe			LSmallToe			LHeel			Neck			Head			Nose			RShoulder			RElbow			RWrist			RThumb			RIndex			RPinky			LShoulder			LElbow			LWrist			LThumb			LIndex			LPinky			
		X1	Y1	Z1	X2	Y2	Z2	X3	Y3	Z3	X4	Y4	Z4	X5	Y5	Z5	X6	Y6	Z6	X7	Y7	Z7	X8	Y8	Z8	X9	Y9	Z9	X10	Y10	Z10	X11	Y11	Z11	X12	Y12	Z12	X13	Y13	Z13	X14	Y14	Z14	X15	Y15	Z15	X16	Y16	Z16	X17	Y17	Z17	X18	Y18	Z18	X19	Y19	Z19	X20	Y20	Z20	X21	Y21	Z21	X22	Y22	Z22	X23	Y23	Z23	X24	Y24	Z24	X25	Y25	Z25	X26	Y26	Z26	X27	Y27	Z27	
27	0.4655172413793103	0.242065601966181	0.6380405147177204	0.9209981623293315	0.26018717926930346	0.7541182045064662	1.3824867124749916	0.2680475940792162	0.9229645730403063	1.8242819306779259	0.2241377231638763	0.6513959781352894	1.859141825632447	0.30175194407825723	0.7143652777681393	1.871621946016707	0.28033074006369807	1.006058815001127	1.8793443945556711	0.029878890407656983	0.6656621460719496	0.9349582600160756	0.061133429308281896	0.7694630453433454	1.3880111638545811	0.09365905056172077	0.90164037165545	1.8175653638995337	0.09702781125215186	0.6946677574948232	1.8599693419908445	0.04679610163777391	0.7428871489669343	1.8702363342353356	0.12800332600555997	1.0272606769841544	1.8922552542771565	0.09191287801436754	0.4755873276877677	0.38545525429580996	0.07524234600105133	0.3345685820215185	0.16154061874052025	0.0690548356123624	0.318286029244551	0.30659747927378256	0.24915854410051272	0.4451759627437136	0.4487594017485479	0.34494645616885855	0.5183460789868005	0.7100010454611405	0.20023230595319128	0.3913294961016939	0.9145635645496976	0.08356282939742302	0.3353879937718328	0.9874726666411814	0.09368026910493835	0.3192828271151677	1.0155157185124375	0.14500515414106413	0.363671775218697	1.0390037837056778	-0.06006128887432388	0.4755290639536544	0.4505353209740377	-0.11383913572481247	0.5491891842166111	0.6939971737223117	0.0061570292388469314	0.4257088958726808	0.8960142950045609	0.0677150051175199	0.3464763253698696	0.9566762674494935	0.06919752618121287	0.3373208657890303	0.9781252768032436	0.05205766265136461	0.38428819515055374	0.9986820063450379
28	0.4827586206896552	0.24074538402278373	0.6348897283571833	0.922111252173948	0.2592908261977524	0.7463599443278319	1.3836602066829606	0.2677279443365872	0.9222149134197946	1.8229877509822632	0.22396265708787505	0.6513866711761882	1.8591737400389894	0.30158972289418245	0.7149731344416043	1.871786953062242	0.280485713689878	0.998988501655744	1.877938856479697	0.029516918969189957	0.6659831249431798	0.9361894915352094	0.06132511085719628	0.7695651458131874	1.3896420221054273	0.09367655127177485	0.9016469032845809	1.819110373459128	0.0959265602124262	0.6942514944565381	1.8590801478680705	0.046556840726615416	0.743639531284296	1.8706238561217772	0.12810314766858127	1.0282476546960249	1.8925415041723732	0.09199627048637025	0.4761049069299337	0.3857681074263858	0.07574557891806492	0.33572928444852	0.1613013786310134	0.06924406449475637	0.3162662569000659	0.3079119404476023	0.24900034762254813	0.4408994278748646	0.4499378518102034	0.3447989123039188	0.5242606068640806	0.7114494408125371	0.21331006363200408	0.39941006631198855	0.9163642339883148	0.10570833009917849	0.32936901544218944	0.9948868344129429	0.11695900645387917	0.3170103523547625	1.0163763609048857	0.15988069653811637	0.36406897327213145	1.0399121999809449	-0.06036196456018697	0.47556352247669853	0.45084760779325306	-0.12002665564563768	0.5376620739359472	0.6911968250151888	-0.002767171864666853	0.42006040007105394	0.8925908128359222	0.05940463912104524	0.34626856001413436	0.953568714952488	0.054452105247966426	0.33875703375265226	0.9700016176277091	0.032827993107235415	0.38344803953833545	0.9900783378235177
29	0.5	0.2413270744491297	0.6346869649940619	0.9219653841749179	0.257925027275099	0.7356716239503609	1.3842304802454024	0.26760171476615274	0.9215982785163694	1.8223535702146738	0.22384613468619025	0.6516109942715123	1.8592957747821668	0.30153529907485627	0.7154747670383809	1.871929747917208	0.2796888951033468	0.9917291225941809	1.875917538049835	0.02804835717689741	0.6652697603760979	0.9362820930908707	0.06156335735380298	0.769629130352563	1.3906278375443653	0.09370907249170389	0.9015842209303411	1.8196357701169452	0.09635498699257622	0.6942696483639018	1.859553793385534	0.046588767729445604	0.7441581519767343	1.8708720940299148	0.12833940900604057	1.0291052031778214	1.8929346671270837	0.09195308274229391	0.4765127867895813	0.3866612955357754	0.07538045450721693	0.3348353020289142	0.16160528332401233	0.06816981943674835	0.31357709445020027	0.3092890649572289	0.24960587303968387	0.43774843991544743	0.451305467737741	0.34517635484358267	0.5297289582852155	0.7118544009565259	0.2261062220096382	0.4052502176026734	0.9155370300751273	0.12630489288862046	0.32292126558309864	0.9929301108467565	0.13895928594942913	0.31996004358230506	1.0075269843824926	0.1707169495072145	0.36341327670337736	1.0354506027048263	-0.06141505218916189	0.47436062584106	0.450969457735891	-0.12570091951350762	0.5307409639524602	0.6884193300011717	-0.013468822069171547	0.4169722808972134	0.8888367841216473	0.049659253456432295	0.34387495229409387	0.948691159666482	0.04125310620276774	0.33749899746813056	0.9622492421154436	0.015445887731806912	0.383793553447816	0.9792114519759475
30	0.5172413793103449	0.24298085017360843	0.635875573969025	0.9195868373766858	0.25667033087525926	0.7271483514596419	1.3830653991353574	0.2675529468205851	0.921242346960325	1.822217789152741	0.2237782234380609	0.6520234528398522	1.8594904869500744	0.3015658104632766	0.7157003421120902	1.8720015691619631	0.27871357548859216	0.9882864051140083	1.8743130189298345	0.026008776619788294	0.6636246856617207	0.9355983244148361	0.06171268390822343	0.7696055813797199	1.3901472993689374	0.09370233709136727	0.9015061178739322	1.8190289065647955	0.09731279124690695	0.6945072382630176	1.860542918881531	0.04662995073737745	0.744284875795879	1.8709322347751307	0.1281299873369392	1.0288264712309207	1.893066634737033	0.09148624505414615	0.47539073430156553	0.38805359774780335	0.07408475841151474	0.33177279382252023	0.16275143103724943	0.06698352170791497	0.3101429398101599	0.3106308493441541	0.2505496112526012	0.43655541268054365	0.4523400576231784	0.34661080096344166	0.5344407883089799	0.7114268484762706	0.23631613597605977	0.40378540901828414	0.9118520233675512	0.1436712654732321	0.3198887950810952	0.9848216108576855	0.15747233217178294	0.31866076423139894	0.9940476746033493	0.1802171653147005	0.358868216790865	1.0254312855398433	-0.06289871470532686	0.47119122023163906	0.4512960857631988	-0.1303720011146103	0.5285337800609956	0.6855578389261011	-0.023404898136534	0.41732900433963377	0.8856209507470179	0.041227930366974155	0.3412159003192019	0.9441000808493762	0.03141109805373249	0.32991134032800357	0.9573920133828442	0.0003438310645153997	0.378758424026285	0.9695040250559335
31	0.5344827586206896	0.24433559003799787	0.6357280661308394	0.9154698958765208	0.25604306720293724	0.7232244882207348	1.3800416383034433	0.26762193850107024	0.921506889041258	1.8221984446762574	0.22372536420118266	0.652304397040355	1.8596227734190502	0.3016390727133649	0.7156446520163682	1.8720036657480046	0.27804080598111847	0.988517890965779	1.8736030490775728	0.02450298641841185	0.6618595042256501	0.9351716517759326	0.061719076128041714	0.7694391057158589	1.388188862739961	0.09367211008662432	0.9013279527121328	1.8171488681959593	0.09794790061316544	0.6948824952111591	1.861185099756959	0.04658263939539712	0.7441154450017751	1.8708450114824644	0.12736433677451559	1.0272344578230326	1.8924563998385844	0.09050024710212339	0.47093820223521965	0.38958610047600534	0.07199472600748529	0.32693268859882074	0.16495064853618235	0.06635490567905036	0.3075153074999193	0.3120499314079169	0.2511321085857468	0.43654061515202547	0.4527466746694462	0.3487807322771074	0.536881245625279	0.7103490251832819	0.24397109631553662	0.3928379590346974	0.9056979310133917	0.15661335016713152	0.32086525318281395	0.9755159766297008	0.17051258445395404	0.30735660503599993	0.981166224385562	0.19245494170999253	0.34895375190013683	1.0114019970252002	-0.06403952058696825	0.4670191103930323	0.45179772378239796	-0.13447195536176393	0.5269933592850908	0.6827618448428064	-0.03128584846763309	0.416784723382576	0.8830845808701479	0.03563023928005667	0.3400074139424387	0.9404400819420908	0.023121377328318475	0.3161324005998636	0.9547139264207373	-0.012948635429709698	0.3669547332360007	0.9633459256987524
